<svg xmlns="http://www.w3.org/2000/svg" width="24" height="24" viewBox="0 0 24 24">
    <g fill="none" fill-rule="evenodd">
        <path d="M0 0L32 0 32 32 0 32z" transform="translate(-4 -4)"/>
        <path fill="#D95071" fill-rule="nonzero" d="M20.427 4h-8.854c-.346 0-.693.147-.933.387L4.387 10.64c-.24.24-.387.587-.387.933v8.84c0 .36.147.694.387.947l6.24 6.24c.253.253.6.4.946.4h8.84c.36 0 .694-.147.947-.387l6.24-6.24c.253-.253.387-.586.387-.946v-8.854c0-.36-.147-.693-.387-.946l-6.24-6.24c-.24-.24-.587-.387-.933-.387zM16 23.067c-.96 0-1.733-.774-1.733-1.734S15.04 19.6 16 19.6c.96 0 1.733.773 1.733 1.733 0 .96-.773 1.734-1.733 1.734zm0-5.734c-.733 0-1.333-.6-1.333-1.333v-5.333c0-.734.6-1.334 1.333-1.334s1.333.6 1.333 1.334V16c0 .733-.6 1.333-1.333 1.333z" transform="translate(-4 -4)"/>
    </g>
</svg>
