<svg xmlns="http://www.w3.org/2000/svg" width="12" height="12" viewBox="0 0 12 12">
    <g fill="none" fill-rule="evenodd">
        <path d="M0 0L16 0 16 16 0 16z" transform="translate(-2 -2)"/>
        <path fill="#FFF" fill-rule="nonzero" d="M13.44 5.2c-.06-.307-.333-.533-.653-.533H3.213c-.32 0-.593.226-.653.533L2 8v.667c0 .366.3.666.667.666v3.334c0 .366.3.666.666.666h5.334c.366 0 .666-.3.666-.666V9.333H12v3.334c0 .366.3.666.667.666.366 0 .666-.3.666-.666V9.333c.367 0 .667-.3.667-.666V8l-.56-2.8zM8 12H4V9.333h4V12zM3.333 4h9.334c.366 0 .666-.3.666-.667 0-.366-.3-.666-.666-.666H3.333c-.366 0-.666.3-.666.666 0 .367.3.667.666.667z" transform="translate(-2 -2)"/>
    </g>
</svg>
