<svg xmlns="http://www.w3.org/2000/svg" width="20" height="22" viewBox="0 0 20 22">
    <g fill="none" fill-rule="evenodd">
        <path d="M0 0L24 0 24 24 0 24z" transform="translate(-2 -1)"/>
        <path fill="#00D2D2" fill-rule="nonzero" d="M11.323 15.067c.4.396 1.046.396 1.446 0l6.523-6.458c.4-.396.4-1.035 0-1.431l-5.077-5.026c-.39-.406-1.036-.406-1.436-.01L6.246 8.609c-.4.396-.4 1.036 0 1.432l5.077 5.026zm2.174-10.773l3.631 3.595-5.077 5.025-3.63-3.594 5.076-5.026zm7.129 11.169L18.45 13.31c-.184-.182-.451-.294-.718-.294h-.277l-2.05 2.03h1.958l1.815 2.031H4.821l1.825-2.03H8.75l-2.052-2.031h-.43c-.277 0-.534.112-.729.294l-2.174 2.153c-.38.386-.595.904-.595 1.442v3.218c0 1.117.923 2.03 2.052 2.03h14.358c1.129 0 2.052-.903 2.052-2.03v-3.218c0-.538-.216-1.056-.605-1.442z" transform="translate(-2 -1)"/>
    </g>
</svg>
